<?xml version="1.0" encoding="UTF-8"?>
<svg width="34px" height="34px" viewBox="0 0 34 34" version="1.1" xmlns="http://www.w3.org/2000/svg" xmlns:xlink="http://www.w3.org/1999/xlink">
    <title>面型/手指</title>
    <defs>
        <path d="M29.4545037,23.3636341 C29.4545037,27.5808127 26.03914,31 21.8257774,31 L18.0114146,31 C15.8205045,31.001974 13.7351171,30.059236 12.289234,28.4131761 L4.71714484,20.4299961 C3.74295704,19.4025274 3.76383429,17.7862332 4.76423574,16.7842697 C5.24086982,16.3069519 5.88773479,16.0387401 6.56228074,16.0387401 C7.23682676,16.0387401 7.88369172,16.3069519 8.3603258,16.7842697 L11.0190525,19.4455418 L11.0190525,5.54545427 C11.0190525,4.13909066 12.1575068,3 13.561961,3 C14.2367199,3.00033746 14.8837083,3.26870805 15.3605962,3.74607329 C15.837484,4.22343853 16.1052072,4.87069513 16.1048696,5.54545427 L16.1048696,11.5909081 C16.1048696,10.3608165 17.1007784,9.36363566 18.3295963,9.36363566 C18.9199681,9.36397243 19.4860258,9.59882036 19.903243,10.016515 C20.3204603,10.4342096 20.5546608,11.0005354 20.5543231,11.5909081 L20.5543231,12.8636353 C20.5543231,11.6335435 21.5508683,10.6363628 22.7796862,10.6363628 C23.370058,10.6366994 23.9361157,10.8715474 24.3533329,11.289242 C24.7705502,11.7069365 25.0047507,12.2732623 25.004413,12.8636353 L25.004413,14.772726 C25.004413,13.542634 26.0009582,12.5454535 27.2297762,12.5454535 C27.820148,12.5457899 28.3862056,12.7806378 28.8034229,13.1983324 C29.2206401,13.616027 29.4548406,14.1823528 29.4545037,14.772726 L29.4545037,23.3636341 Z" id="path-1"></path>
    </defs>
    <g id="面型/手指" stroke="none" stroke-width="1" fill="none" fill-rule="evenodd">
        <mask id="mask-2" fill="white">
            <use xlink:href="#path-1"></use>
        </mask>
        <use id="path-1" fill="#1D2939" fill-rule="nonzero" xlink:href="#path-1"></use>
        <rect id="色彩" fill="#344054" mask="url(#mask-2)" x="0" y="0" width="34" height="34"></rect>
    </g>
</svg>