<?xml version="1.0" standalone="no"?><!DOCTYPE svg PUBLIC "-//W3C//DTD SVG 1.1//EN" "http://www.w3.org/Graphics/SVG/1.1/DTD/svg11.dtd"><svg t="1649639370751" class="icon" viewBox="0 0 1024 1024" version="1.1" xmlns="http://www.w3.org/2000/svg" p-id="1817" xmlns:xlink="http://www.w3.org/1999/xlink" width="64" height="64"><defs><style type="text/css">@font-face { font-family: feedback-iconfont; src: url("//at.alicdn.com/t/font_1031158_u69w8yhxdu.woff2?t=1630033759944") format("woff2"), url("//at.alicdn.com/t/font_1031158_u69w8yhxdu.woff?t=1630033759944") format("woff"), url("//at.alicdn.com/t/font_1031158_u69w8yhxdu.ttf?t=1630033759944") format("truetype"); }
</style></defs><path d="M480.5 123.8h21v106h-21zM480.5 278.8h21v106h-21zM480.5 534.1h21v173.7h-21z" p-id="1818" fill="#d81e06"></path><path d="M438 219.3h106v21H438zM438 272.9h106v21H438zM433.25 502.421l100.62-100.62 14.85 14.85L448.1 517.27z" p-id="1819" fill="#d81e06"></path><path d="M433.25 416.568l14.849-14.849 100.62 100.62-14.849 14.85z" p-id="1820" fill="#d81e06"></path><path d="M491 544.6c-47 0-85.2-38.2-85.2-85.2s38.2-85.2 85.2-85.2 85.2 38.2 85.2 85.2-38.2 85.2-85.2 85.2z m0-149.3c-35.4 0-64.2 28.8-64.2 64.2s28.8 64.2 64.2 64.2 64.2-28.8 64.2-64.2-28.8-64.2-64.2-64.2zM361.1 706.3h259.8v20H361.1zM407.9 774.2h166.2v20H407.9zM450.1 842.2h81.8v20h-81.8z" p-id="1821" fill="#d81e06"></path></svg>